<svg xmlns="http://www.w3.org/2000/svg" width="1200" height="900" viewBox="0 0 1200 900" role="img" aria-labelledby="title desc">
  <title id="title">Amazon sponsored shopping poster</title>
  <desc id="desc">ReviewIntel affiliate poster for Amazon sponsored shopping options.</desc>
  <defs>
    <linearGradient id="bg" x1="0" y1="0" x2="1" y2="1">
      <stop offset="0" stop-color="#fff7df"/>
      <stop offset="0.48" stop-color="#ffffff"/>
      <stop offset="1" stop-color="#d9fbff"/>
    </linearGradient>
    <radialGradient id="glow" cx="72%" cy="18%" r="62%">
      <stop offset="0" stop-color="#ffb238" stop-opacity="0.72"/>
      <stop offset="1" stop-color="#ffb238" stop-opacity="0"/>
    </radialGradient>
  </defs>
  <rect width="1200" height="900" rx="64" fill="url(#bg)"/>
  <rect width="1200" height="900" rx="64" fill="url(#glow)"/>
  <g opacity="0.22" stroke="#08b7a8" stroke-width="2">
    <path d="M120 170h960M120 300h960M120 430h960M120 560h960M120 690h960"/>
    <path d="M190 110v690M340 110v690M490 110v690M640 110v690M790 110v690M940 110v690"/>
  </g>
  <g transform="translate(100 108)">
    <rect width="148" height="148" rx="42" fill="#06111f"/>
    <text x="74" y="98" text-anchor="middle" font-family="Arial, Helvetica, sans-serif" font-size="58" font-weight="900" fill="#ffffff">RI</text>
  </g>
  <g transform="translate(100 320)">
    <text font-family="Arial, Helvetica, sans-serif" font-size="38" font-weight="900" letter-spacing="9" fill="#2356a3">SPONSORED</text>
    <text y="96" font-family="Arial, Helvetica, sans-serif" font-size="86" font-weight="900" fill="#06111f">Amazon</text>
    <text y="166" font-family="Arial, Helvetica, sans-serif" font-size="46" font-weight="900" fill="#087f8f">shopping options</text>
    <rect y="238" width="380" height="74" rx="37" fill="#08b7a8"/>
    <text x="190" y="287" text-anchor="middle" font-family="Arial, Helvetica, sans-serif" font-size="30" font-weight="900" fill="#ffffff">Shop Amazon</text>
  </g>
  <g transform="translate(790 178)">
    <rect width="280" height="430" rx="52" fill="#ffffff" opacity="0.82"/>
    <circle cx="94" cy="104" r="44" fill="#ffb238"/>
    <rect x="64" y="188" width="150" height="24" rx="12" fill="#d9fbff"/>
    <rect x="64" y="244" width="188" height="24" rx="12" fill="#d9fbff"/>
    <rect x="64" y="300" width="128" height="24" rx="12" fill="#d9fbff"/>
  </g>
  <text x="100" y="820" font-family="Arial, Helvetica, sans-serif" font-size="28" font-weight="800" fill="#64748b">Affiliate compensation does not affect ReviewIntel verdicts.</text>
</svg>
