<svg xmlns="http://www.w3.org/2000/svg" width="1200" height="900" viewBox="0 0 1200 900" role="img" aria-labelledby="title desc">
  <title id="title">Travelpayouts sponsored flight poster</title>
  <desc id="desc">ReviewIntel affiliate poster for Travelpayouts sponsored flight deals.</desc>
  <defs>
    <linearGradient id="bg" x1="0" y1="0" x2="1" y2="1">
      <stop offset="0" stop-color="#e8fcff"/>
      <stop offset="0.5" stop-color="#ffffff"/>
      <stop offset="1" stop-color="#e7f0ff"/>
    </linearGradient>
    <radialGradient id="glow" cx="78%" cy="24%" r="68%">
      <stop offset="0" stop-color="#60a5fa" stop-opacity="0.62"/>
      <stop offset="1" stop-color="#60a5fa" stop-opacity="0"/>
    </radialGradient>
  </defs>
  <rect width="1200" height="900" rx="64" fill="url(#bg)"/>
  <rect width="1200" height="900" rx="64" fill="url(#glow)"/>
  <g opacity="0.2" stroke="#2356a3" stroke-width="2">
    <path d="M110 700c170-190 350-250 540-180 190 70 320 30 440-120"/>
    <path d="M130 590c130-100 290-130 480-80 190 50 330 10 430-90"/>
  </g>
  <g transform="translate(100 108)">
    <rect width="148" height="148" rx="42" fill="#08b7a8"/>
    <text x="74" y="98" text-anchor="middle" font-family="Arial, Helvetica, sans-serif" font-size="58" font-weight="900" fill="#ffffff">RI</text>
  </g>
  <g transform="translate(100 320)">
    <text font-family="Arial, Helvetica, sans-serif" font-size="38" font-weight="900" letter-spacing="9" fill="#2356a3">SPONSORED</text>
    <text y="96" font-family="Arial, Helvetica, sans-serif" font-size="78" font-weight="900" fill="#06111f">Flight deals</text>
    <text y="166" font-family="Arial, Helvetica, sans-serif" font-size="46" font-weight="900" fill="#087f8f">Powered by Travelpayouts</text>
    <rect y="238" width="380" height="74" rx="37" fill="#2356a3"/>
    <text x="190" y="287" text-anchor="middle" font-family="Arial, Helvetica, sans-serif" font-size="30" font-weight="900" fill="#ffffff">Compare flights</text>
  </g>
  <g transform="translate(760 190)" fill="none" stroke="#06111f" stroke-width="20" stroke-linecap="round" stroke-linejoin="round" opacity="0.9">
    <path d="M30 198l330-116"/>
    <path d="M148 156l-58-92"/>
    <path d="M214 132l104 66"/>
    <path d="M78 238l106-38"/>
  </g>
  <text x="100" y="820" font-family="Arial, Helvetica, sans-serif" font-size="28" font-weight="800" fill="#64748b">Affiliate compensation does not affect ReviewIntel verdicts.</text>
</svg>
