<svg xmlns="http://www.w3.org/2000/svg" width="1200" height="900" viewBox="0 0 1200 900" role="img" aria-labelledby="title desc">
  <title id="title">Stay22 sponsored hotel poster</title>
  <desc id="desc">ReviewIntel affiliate poster for hotel deals powered by Stay22.</desc>
  <defs>
    <linearGradient id="bg" x1="0" y1="0" x2="1" y2="1">
      <stop offset="0" stop-color="#e7fff8"/>
      <stop offset="0.48" stop-color="#ffffff"/>
      <stop offset="1" stop-color="#fff7d6"/>
    </linearGradient>
    <radialGradient id="glow" cx="76%" cy="20%" r="66%">
      <stop offset="0" stop-color="#10b981" stop-opacity="0.56"/>
      <stop offset="1" stop-color="#10b981" stop-opacity="0"/>
    </radialGradient>
  </defs>
  <rect width="1200" height="900" rx="64" fill="url(#bg)"/>
  <rect width="1200" height="900" rx="64" fill="url(#glow)"/>
  <g opacity="0.18" stroke="#08b7a8" stroke-width="2">
    <path d="M118 196h964M118 354h964M118 512h964M118 670h964"/>
    <path d="M236 120v670M430 120v670M624 120v670M818 120v670M1012 120v670"/>
  </g>
  <g transform="translate(100 108)">
    <rect width="148" height="148" rx="42" fill="#2356a3"/>
    <text x="74" y="98" text-anchor="middle" font-family="Arial, Helvetica, sans-serif" font-size="58" font-weight="900" fill="#ffffff">RI</text>
  </g>
  <g transform="translate(100 320)">
    <text font-family="Arial, Helvetica, sans-serif" font-size="38" font-weight="900" letter-spacing="9" fill="#2356a3">SPONSORED</text>
    <text y="96" font-family="Arial, Helvetica, sans-serif" font-size="78" font-weight="900" fill="#06111f">Hotel deals</text>
    <text y="166" font-family="Arial, Helvetica, sans-serif" font-size="46" font-weight="900" fill="#087f8f">Powered by Stay22</text>
    <rect y="238" width="320" height="74" rx="37" fill="#08b7a8"/>
    <text x="160" y="287" text-anchor="middle" font-family="Arial, Helvetica, sans-serif" font-size="30" font-weight="900" fill="#ffffff">Find hotels</text>
  </g>
  <g transform="translate(760 184)">
    <rect x="18" y="134" width="340" height="306" rx="34" fill="#ffffff" opacity="0.86"/>
    <rect x="72" y="210" width="58" height="70" rx="12" fill="#d9fbff"/>
    <rect x="160" y="210" width="58" height="70" rx="12" fill="#d9fbff"/>
    <rect x="248" y="210" width="58" height="70" rx="12" fill="#d9fbff"/>
    <rect x="104" y="328" width="170" height="112" rx="18" fill="#2356a3"/>
    <path d="M18 134l170-98 170 98" fill="#08b7a8"/>
  </g>
  <text x="100" y="820" font-family="Arial, Helvetica, sans-serif" font-size="28" font-weight="800" fill="#64748b">Affiliate compensation does not affect ReviewIntel verdicts.</text>
</svg>
