<svg width="1200" height="630" viewBox="0 0 1200 630" fill="none" xmlns="http://www.w3.org/2000/svg">
  <defs>
    <radialGradient id="g1" cx="25%" cy="20%" r="70%">
      <stop offset="0%" stop-color="#5eead4"/>
      <stop offset="45%" stop-color="#0f766e"/>
      <stop offset="100%" stop-color="#07111f"/>
    </radialGradient>
    <radialGradient id="g2" cx="80%" cy="25%" r="55%">
      <stop offset="0%" stop-color="#facc15" stop-opacity="0.95"/>
      <stop offset="45%" stop-color="#22d3ee" stop-opacity="0.35"/>
      <stop offset="100%" stop-color="#07111f" stop-opacity="0"/>
    </radialGradient>
    <filter id="shadow" x="-20%" y="-20%" width="140%" height="140%">
      <feDropShadow dx="0" dy="24" stdDeviation="26" flood-color="#000000" flood-opacity="0.35"/>
    </filter>
  </defs>

  <rect width="1200" height="630" fill="url(#g1)"/>
  <rect width="1200" height="630" fill="url(#g2)"/>

  <circle cx="1020" cy="95" r="190" fill="#ffffff" opacity="0.08"/>
  <circle cx="1050" cy="500" r="250" fill="#14b8a6" opacity="0.18"/>
  <circle cx="120" cy="540" r="190" fill="#facc15" opacity="0.13"/>

  <g filter="url(#shadow)">
    <rect x="70" y="70" width="1060" height="490" rx="44" fill="white" fill-opacity="0.12" stroke="white" stroke-opacity="0.28"/>
  </g>

  <text x="110" y="150" fill="#ffffff" font-family="Arial, Helvetica, sans-serif" font-size="34" font-weight="800" letter-spacing="3">
    REVIEWINTEL
  </text>

  <text x="110" y="250" fill="#ffffff" font-family="Arial, Helvetica, sans-serif" font-size="76" font-weight="900">
    AI Review Intelligence
  </text>

  <text x="110" y="320" fill="#dffcf4" font-family="Arial, Helvetica, sans-serif" font-size="36" font-weight="700">
    For smarter shoppers and sharper sellers
  </text>

  <g font-family="Arial, Helvetica, sans-serif" font-size="28" font-weight="800">
    <rect x="110" y="390" width="255" height="58" rx="29" fill="#ffffff" fill-opacity="0.18"/>
    <text x="140" y="428" fill="#ffffff">Fake review risk</text>

    <rect x="390" y="390" width="285" height="58" rx="29" fill="#ffffff" fill-opacity="0.18"/>
    <text x="420" y="428" fill="#ffffff">Buyer confidence</text>

    <rect x="700" y="390" width="245" height="58" rx="29" fill="#ffffff" fill-opacity="0.18"/>
    <text x="730" y="428" fill="#ffffff">Seller insights</text>
  </g>

  <g transform="translate(900 170)">
    <rect x="0" y="0" width="160" height="220" rx="28" fill="#ffffff" fill-opacity="0.16" stroke="#ffffff" stroke-opacity="0.3"/>
    <rect x="28" y="42" width="104" height="20" rx="10" fill="#5eead4"/>
    <rect x="28" y="82" width="80" height="20" rx="10" fill="#ffffff" fill-opacity="0.8"/>
    <rect x="28" y="122" width="112" height="20" rx="10" fill="#facc15"/>
    <rect x="28" y="162" width="68" height="20" rx="10" fill="#ffffff" fill-opacity="0.55"/>
  </g>

  <text x="110" y="520" fill="#ffffff" fill-opacity="0.82" font-family="Arial, Helvetica, sans-serif" font-size="24" font-weight="600">
    Upload reviews → get instant product truth, risk signals, and action plans.
  </text>
</svg>
